# xmcd
#
# Track frame offsets: 
#        150
#        11870
#        30045
#        51345
#        62847
#        82347
#        99150
#        111342
#        124630
#        132357
#        155195
#        162395
#        176230
#        189405
#        201412
#        218080
#
# Disc length: 3195 seconds
#
# Revision: 2
# Processed by: cddbd v1.5.1PL0 Copyright (c) Steve Scherf et al.
# Submitted via: ExactAudioCopy v0.90b4
#
DISCID=e80c7910
DTITLE=Various Artist - Asymbibastos (O Eykolos Dromos) Kai Pente Spa
DTITLE=nia Tragoudia
DYEAR=1994
DGENRE=Rock
TTITLE0=Orxhstriko - Eisagwgh (Feygio Ths Annas)
TTITLE1=Paylos Sidhropoylos - Na M' Agapas
TTITLE2=Orxhstriko - Oneiriko
TTITLE3=Giwrgos 8eodwrakhs - Ti Na Soy Pw
TTITLE4=Orxhstriko - Floy
TTITLE5=Paylos Sidhropoylos - Kapote 8a 'R8oyn
TTITLE6=Orxhstriko - Ntylan Tomas
TTITLE7=Paylos Sidhropoylos - Mh Moy Milas Gia Tipota
TTITLE8=Paylos Sidhropoylos - Ston Ypno Moy
TTITLE9=Orxhstriko - Erwtiko
TTITLE10=Paylos Sidhropoylos - Ti Na Soy Pw
TTITLE11=Damwn Kai Fintias - To 3espasma
TTITLE12=Damwn Kai Fintias - O Kosmos Toys
TTITLE13=Mpoyrmpoylia - Apogohteysh
TTITLE14=Mpoyrmpoylia - O Ntamhs O Sklhros
TTITLE15=Damwn Kai Fintias - O Geroma8ios
EXTD=
EXTT0=
EXTT1=
EXTT2=
EXTT3=
EXTT4=
EXTT5=
EXTT6=
EXTT7=
EXTT8=
EXTT9=
EXTT10=
EXTT11=
EXTT12=
EXTT13=
EXTT14=
EXTT15=
PLAYORDER=
